<svg id="visual" viewBox="0 0 900 300" width="900" height="300" xmlns="http://www.w3.org/2000/svg" xmlns:xlink="http://www.w3.org/1999/xlink" version="1.1"><rect x="0" y="0" width="900" height="300" fill="#e2e2e2"></rect><path d="M0 187L18.8 190.5C37.7 194 75.3 201 112.8 199.5C150.3 198 187.7 188 225.2 189.7C262.7 191.3 300.3 204.7 337.8 211.2C375.3 217.7 412.7 217.3 450.2 212.7C487.7 208 525.3 199 562.8 197.8C600.3 196.7 637.7 203.3 675.2 204C712.7 204.7 750.3 199.3 787.8 201.8C825.3 204.3 862.7 214.7 881.3 219.8L900 225L900 0L881.3 0C862.7 0 825.3 0 787.8 0C750.3 0 712.7 0 675.2 0C637.7 0 600.3 0 562.8 0C525.3 0 487.7 0 450.2 0C412.7 0 375.3 0 337.8 0C300.3 0 262.7 0 225.2 0C187.7 0 150.3 0 112.8 0C75.3 0 37.7 0 18.8 0L0 0Z" fill="#d1e8e2"></path><path d="M0 162L18.8 163.8C37.7 165.7 75.3 169.3 112.8 170.2C150.3 171 187.7 169 225.2 166C262.7 163 300.3 159 337.8 157.3C375.3 155.7 412.7 156.3 450.2 158.5C487.7 160.7 525.3 164.3 562.8 164.2C600.3 164 637.7 160 675.2 158.5C712.7 157 750.3 158 787.8 155C825.3 152 862.7 145 881.3 141.5L900 138L900 0L881.3 0C862.7 0 825.3 0 787.8 0C750.3 0 712.7 0 675.2 0C637.7 0 600.3 0 562.8 0C525.3 0 487.7 0 450.2 0C412.7 0 375.3 0 337.8 0C300.3 0 262.7 0 225.2 0C187.7 0 150.3 0 112.8 0C75.3 0 37.7 0 18.8 0L0 0Z" fill="#e0eae0"></path><path d="M0 101L18.8 100.5C37.7 100 75.3 99 112.8 98C150.3 97 187.7 96 225.2 96.3C262.7 96.7 300.3 98.3 337.8 103.3C375.3 108.3 412.7 116.7 450.2 120C487.7 123.3 525.3 121.7 562.8 118.2C600.3 114.7 637.7 109.3 675.2 108.5C712.7 107.7 750.3 111.3 787.8 112.3C825.3 113.3 862.7 111.7 881.3 110.8L900 110L900 0L881.3 0C862.7 0 825.3 0 787.8 0C750.3 0 712.7 0 675.2 0C637.7 0 600.3 0 562.8 0C525.3 0 487.7 0 450.2 0C412.7 0 375.3 0 337.8 0C300.3 0 262.7 0 225.2 0C187.7 0 150.3 0 112.8 0C75.3 0 37.7 0 18.8 0L0 0Z" fill="#ecece4"></path><path d="M0 75L18.8 71C37.7 67 75.3 59 112.8 56.2C150.3 53.3 187.7 55.7 225.2 59.8C262.7 64 300.3 70 337.8 73C375.3 76 412.7 76 450.2 72C487.7 68 525.3 60 562.8 57C600.3 54 637.7 56 675.2 55C712.7 54 750.3 50 787.8 48C825.3 46 862.7 46 881.3 46L900 46L900 0L881.3 0C862.7 0 825.3 0 787.8 0C750.3 0 712.7 0 675.2 0C637.7 0 600.3 0 562.8 0C525.3 0 487.7 0 450.2 0C412.7 0 375.3 0 337.8 0C300.3 0 262.7 0 225.2 0C187.7 0 150.3 0 112.8 0C75.3 0 37.7 0 18.8 0L0 0Z" fill="#f2efec"></path></svg>